<svg xmlns="http://www.w3.org/2000/svg" xmlns:cc="http://web.resource.org/cc/" xmlns:svg="http://www.w3.org/2000/svg" xmlns:xlink="http://www.w3.org/1999/xlink" id="svg2" width="51.2" height="51.2"><defs id="defs4"><linearGradient id="linearGradient2860"><stop id="stop2862" offset="0" stop-color="#000" stop-opacity=".843"/><stop id="stop2864" offset="1" stop-color="#000" stop-opacity="0"/></linearGradient><radialGradient id="radialGradient2866" cx="24" cy="44.232" r="24" fx="24" fy="44.232" gradientTransform="matrix(1,0,0,0.134673,0,38.27528)" gradientUnits="userSpaceOnUse" xlink:href="#linearGradient2860"/></defs><metadata id="metadata7"/><g id="layer1"><path id="path1971" fill="url(#radialGradient2866)" fill-opacity="1" stroke="none" stroke-dasharray="none" stroke-linejoin="round" stroke-miterlimit="4" stroke-opacity="1" stroke-width="1.2" d="M 48 44.232143 A 24 3.2321429 0 1 1 0,44.232143 A 24 3.2321429 0 1 1 48 44.232143 z" transform="matrix(1,0,0,2.011045,0,-48.45286)"/><path id="path1401" fill="#fff" fill-opacity="1" fill-rule="evenodd" stroke="none" stroke-dashoffset="0" stroke-linecap="butt" stroke-linejoin="bevel" stroke-miterlimit="10" stroke-opacity="1" stroke-width="1.158" marker-end="none" marker-mid="none" marker-start="none" d="M 40,8 C 40,14 40,26 40,33 C 33,36 28,37.503801 9,43 C 7,24 6,16 5,8 C 15,8 30.588197,8 40,8 z" color="#000" display="inline" opacity="1" overflow="visible" visibility="visible" style="marker:none"/><path id="path3599" fill="#222" fill-opacity="1" fill-rule="evenodd" stroke="none" stroke-dashoffset="0" stroke-linecap="butt" stroke-linejoin="bevel" stroke-miterlimit="10" stroke-opacity="1" stroke-width="1.158" marker-end="none" marker-mid="none" marker-start="none" d="M 46.000000,5.0000000 L 46.000000,43.000000 C 44.000000,43.000000 4.0000000,43.000000 2.0000000,43.000000 L 2.0000000,5.0000000 C 4.0000000,5.0000000 44.000000,5.0000000 46.000000,5.0000000 z M 24.000000,13.000000 C 10.000000,13.000000 10.000000,14.000000 10.000000,24.000000 C 10.000000,33.000000 11.558058,33.000000 11.558058,33.000000 C 9.0000000,43.000000 11.505076,32.947018 9.0000000,43.000000 C 24.000000,35.000000 9.0000000,43.000000 24.000000,35.000000 C 38.000142,35.000000 38.000000,34.000000 38.000000,24.000000 C 38.000000,14.000000 38.000000,13.000000 24.000000,13.000000 z" color="#000" display="inline" opacity="1" overflow="visible" visibility="visible" style="marker:none"/></g></svg>